<svg width="217" height="90" viewBox="0 0 217 90" fill="none" xmlns="http://www.w3.org/2000/svg">
<g clip-path="url(#clip0_138_54)">
<path d="M73.5 11.5L73.5 70" stroke="#F2F2F2"/>
<path d="M93.5 0L93.5 19" stroke="#F2F2F2"/>
<path d="M4.5 -0.315338L4.5 19" stroke="#F2F2F2"/>
<path d="M162.5 0L162.5 8.00002M182.5 21.5L182.5 57.5" stroke="#F2F2F2"/>
<path d="M132.5 0L132.5 35.5" stroke="#F2F2F2"/>
<path d="M34.5 0L34.5 38.5" stroke="#F2F2F2"/>
<path d="M93.5 50L93.5 85" stroke="#F2F2F2"/>
<path d="M212.5 0L212.5 41" stroke="#F2F2F2"/>
<path d="M35 11L73.5 11" stroke="#F2F2F2"/>
<path d="M73.5 50H94" stroke="#F2F2F2"/>
<path d="M183 22L212 22" stroke="#F2F2F2"/>
<circle cx="34.5" cy="41.5" r="4.5" fill="#F2F2F2"/>
<circle cx="73.5" cy="72.5" r="4.5" fill="#F2F2F2"/>
<circle cx="93.5" cy="21.5" r="4.5" fill="#F2F2F2"/>
<circle cx="4.5" cy="21.5" r="4.5" fill="#F2F2F2"/>
<circle cx="162.5" cy="7.5" r="4.5" fill="#F2F2F2"/>
<circle cx="132.5" cy="37.5" r="4.5" fill="#F2F2F2"/>
<circle cx="93.5" cy="85.5" r="4.5" fill="#F2F2F2"/>
<circle cx="212.5" cy="41.5" r="4.5" fill="#F2F2F2"/>
<circle cx="182.5" cy="58.5" r="4.5" fill="#F2F2F2"/>
</g>
<defs>
<clipPath id="clip0_138_54">
<rect width="217" height="90" fill="white"/>
</clipPath>
</defs>
</svg>
