<svg xmlns="http://www.w3.org/2000/svg" width="1920" height="758" fill="none" xmlns:v="https://vecta.io/nano"><path fill="#eff7ff" d="M0 0h1920v758H0z"/><circle cx="632" cy="624" r="13" transform="rotate(180 632 624)" fill="#45c6e4"/><circle cx="1529" cy="283.999" r="13" transform="rotate(180 1529 283.999)" fill="#ff106c"/><circle cx="1798.5" cy="429.499" r="16.5" transform="rotate(180 1798.5 429.499)" fill="#48ddff"/><circle cx="864" cy="39.999" r="13" transform="rotate(180 864 39.999)" fill="#ffac64"/><circle cx="209" cy="233.999" r="13" transform="rotate(180 209 233.999)" fill="#45c6e4"/><g fill="#3645bd"><circle cx="430" cy="487.999" r="13" transform="rotate(180 430 487.999)"/><circle cx="1908.5" cy="656.5" transform="rotate(180 1908.5 656.5)" r="9.5"/></g><circle cx="1425" cy="736" r="13" transform="rotate(180 1425 736)" fill="#ffac64"/><circle cx="102" cy="680" r="13" transform="rotate(180 102 680)" fill="#e1555f"/></svg>