<svg xmlns="http://www.w3.org/2000/svg" xmlns:xlink="http://www.w3.org/1999/xlink" viewBox="0 0 265 245"><defs><path id="a" d="M9.1 0h239.3v219.4H9.1z"/><path id="f" d="M210.7 61.7H35.8c-4.4 0-8 3.6-8 8v153c0 4.4 3.6 8 8 8h174.9c4.4 0 8-3.6 8-8v-153c0-4.4-3.6-8-8-8z"/></defs><clipPath id="b"><use xlink:href="#a"/></clipPath><g clip-path="url(#b)"><radialGradient id="c" cx="-121.903" cy="378.325" r="1" gradientTransform="matrix(112.079 0 0 -112.777 13792.903 42777.344)" gradientUnits="userSpaceOnUse"><stop offset="0" stop-color="#5902c2"/><stop offset=".11" stop-color="#4428ca"/><stop offset=".23" stop-color="#2f4dd1"/><stop offset=".36" stop-color="#1e6cd7"/><stop offset=".5" stop-color="#1184dc"/><stop offset=".64" stop-color="#0795df"/><stop offset=".8" stop-color="#029fe1"/><stop offset="1" stop-color="#00a2e2"/></radialGradient><path d="M203.7 63.7s-6.8-6.6-39.1-42c-32.4-35.4-68.5 0-77.1 9.6L38.2 85.5C13.7 112 5.5 136.1 13 154.9s34.7 27.6 61.3 20.8c29.1-7.5 56.1-8.6 78.6 19.2 28.5 35 79.4 24.9 92.6-24.1s-22.2-85.4-41.8-107.1z" opacity=".33" fill="url(#c)"/><radialGradient id="d" cx="-121.744" cy="378.169" r=".999" gradientTransform="matrix(97.9192 0 0 -99.5141 12035.772 37762.719)" gradientUnits="userSpaceOnUse"><stop offset="0" stop-color="#5902c2"/><stop offset=".11" stop-color="#4428ca"/><stop offset=".23" stop-color="#2f4dd1"/><stop offset=".36" stop-color="#1e6cd7"/><stop offset=".5" stop-color="#1184dc"/><stop offset=".64" stop-color="#0795df"/><stop offset=".8" stop-color="#029fe1"/><stop offset="1" stop-color="#00a2e2"/></radialGradient><path d="M216.3 96.8c-9-30.1-36.2-44.2-60.3-35.5-15.3 5.5-34.9 7.6-64.4-11.6C59.9 29 8.9 31.3 9.1 89.9c.2 74.7 33.9 102 53.9 114.8 42.8 27.2 102.7 13.2 127.4-14.3 24.2-27 35.2-62.6 25.9-93.6z" opacity=".33" fill="url(#d)"/><radialGradient id="e" cx="-121.821" cy="378.225" r="1" gradientTransform="matrix(104.301 0 0 -103.912 12830.947 39401.016)" gradientUnits="userSpaceOnUse"><stop offset="0" stop-color="#5902c2"/><stop offset=".11" stop-color="#4428ca"/><stop offset=".23" stop-color="#2f4dd1"/><stop offset=".36" stop-color="#1e6cd7"/><stop offset=".5" stop-color="#1184dc"/><stop offset=".64" stop-color="#0795df"/><stop offset=".8" stop-color="#029fe1"/><stop offset="1" stop-color="#00a2e2"/></radialGradient><path d="M226.4 13.3c-9.6-14-34.7-20.5-58.8-1.5-27.2 21.4-65.5 32-99.7 37.5-35.3 5.7-52 31.9-52.5 48.2-.5 17.8 14.5 40 59.1 67.2s75.6 34.7 102.2 31.2 44-19.3 52.7-45.7c6.1-18.4 2.7-40.5 1.3-70.1-1.8-36.9 9.6-46.6-4.3-66.8z" opacity=".33" fill="url(#e)"/></g><use xlink:href="#f" opacity=".5" fill="#f1edf6"/><use xlink:href="#f" y="-1" fill="#fff"/><path d="M31 52.9h184.5c.4 0 .8.1 1.2.2.4.2.7.4 1 .7s.5.6.7 1 .2.8.2 1.2v17.2H27.8V56.1c0-.8.3-1.7.9-2.3s1.4-.9 2.3-.9z" fill="#0084ff"/><path d="M24.7 149H13c-4.7 0-8.5 3.8-8.5 8.5S8.3 166 13 166h11.7c4.7 0 8.5-3.8 8.5-8.5s-3.8-8.5-8.5-8.5z" fill="#f2464c"/><path d="M232.7 124.6H210c-4.7 0-8.5 3.8-8.5 8.5s3.8 8.5 8.5 8.5h22.7c4.7 0 8.5-3.8 8.5-8.5.1-4.7-3.8-8.5-8.5-8.5z" fill="#132187"/><path d="M42.1 196.1H19.4c-4.7 0-8.5 3.8-8.5 8.5s3.8 8.5 8.5 8.5h22.7c4.7 0 8.5-3.8 8.5-8.5 0-4.6-3.8-8.5-8.5-8.5z" fill="#0084ff"/><path d="M256.5 99.5h-21.4c-4.7 0-8.5 3.8-8.5 8.5s3.8 8.5 8.5 8.5h21.4c4.7 0 8.5-3.8 8.5-8.5s-3.8-8.5-8.5-8.5zM0 109.9c0 4.7 3.8 8.5 8.5 8.5s8.5-3.8 8.5-8.5-3.8-8.5-8.5-8.5-8.5 3.8-8.5 8.5z" fill="#f90"/><path d="M38.4 66.8a3.4 3.4 0 1 0 0-6.8 3.37 3.37 0 0 0-3.4 3.4 3.44 3.44 0 0 0 3.4 3.4zm9.6 0a3.4 3.4 0 1 0 0-6.8 3.4 3.4 0 1 0 0 6.8zm10.1 0a3.37 3.37 0 0 0 3.4-3.4 3.44 3.44 0 0 0-3.4-3.4 3.4 3.4 0 1 0 0 6.8z" fill="#fffffc"/><defs><path id="g" d="M178 174.5h70v72h-70z"/></defs><clipPath id="h"><use xlink:href="#g"/></clipPath><g clip-path="url(#h)"><path d="M247.2 180c-1.2-.6-2.6-.2-3.2 1l-26.1 50.3-13.8-16c-.9-1-2.3-1.1-3.4-.3-1 .9-1.1 2.4-.3 3.4l15.6 18.2c1.3 1.5 3.7 1.2 4.6-.5l27.5-52.9c.6-1.1.2-2.6-.9-3.2z" fill="#0084ff"/><path d="m206.6 234.2-5.6 10.7c-.9 1.8-3.3 2-4.6.5l-18.1-21.5c-.9-1-.7-2.5.3-3.4.4-.4 1-.6 1.5-.6.7 0 1.3.3 1.8.8l16.3 19.3 5.2-9.8 3.2 4zm24.5-46.9c0 .4-.1.8-.3 1.1l-16.5 31.2-3.3-3.9 15.6-29.6c.6-1.2 2.1-1.6 3.2-1 .9.5 1.3 1.3 1.3 2.2z" fill="#132187"/></g><g fill="none" stroke-width="4"><path d="M51 143.5h127m-127-20h113.5M51 102.5h79m-79 61h127m-127 18h127" stroke="#f1edf6"/><path d="M51 200.5h57" stroke="#f90"/></g></svg>