<svg xmlns="http://www.w3.org/2000/svg" xmlns:xlink="http://www.w3.org/1999/xlink" viewBox="0 0 265 245"><defs><path id="a" d="M7.3.1h239.3v219.4H7.3z"/><path id="f" d="M210.7 59.6H35.8c-4.4 0-8 3.6-8 8v153c0 4.4 3.6 8 8 8h174.9c4.4 0 8-3.6 8-8v-153c0-4.4-3.6-8-8-8z"/></defs><clipPath id="b"><use xlink:href="#a"/></clipPath><g clip-path="url(#b)"><radialGradient id="c" cx="-121.903" cy="377.821" r="1" gradientTransform="matrix(112.079 0 0 -112.777 13791.089 42720.586)" gradientUnits="userSpaceOnUse"><stop offset="0" stop-color="#5902c2"/><stop offset=".11" stop-color="#4428ca"/><stop offset=".23" stop-color="#2f4dd1"/><stop offset=".36" stop-color="#1e6cd7"/><stop offset=".5" stop-color="#1184dc"/><stop offset=".64" stop-color="#0795df"/><stop offset=".8" stop-color="#029fe1"/><stop offset="1" stop-color="#00a2e2"/></radialGradient><path d="M201.9 63.8s-6.8-6.6-39.1-42c-32.4-35.4-68.5 0-77.1 9.6L36.4 85.6C12 112.1 3.7 136.3 11.2 155.1s34.7 27.6 61.3 20.8c29.1-7.5 56.1-8.6 78.6 19.2 28.5 35 79.4 24.9 92.6-24.1 13.2-49.1-22.2-85.4-41.8-107.2z" opacity=".33" fill="url(#c)"/><radialGradient id="d" cx="-121.744" cy="377.664" r=".999" gradientTransform="matrix(97.9192 0 0 -99.5141 12033.959 37712.594)" gradientUnits="userSpaceOnUse"><stop offset="0" stop-color="#5902c2"/><stop offset=".11" stop-color="#4428ca"/><stop offset=".23" stop-color="#2f4dd1"/><stop offset=".36" stop-color="#1e6cd7"/><stop offset=".5" stop-color="#1184dc"/><stop offset=".64" stop-color="#0795df"/><stop offset=".8" stop-color="#029fe1"/><stop offset="1" stop-color="#00a2e2"/></radialGradient><path d="M214.5 96.9c-9-30.1-36.2-44.2-60.3-35.5-15.3 5.5-34.9 7.6-64.4-11.6C58 29.2 7.1 31.4 7.3 90.1c.2 74.7 33.9 102 53.9 114.8 42.8 27.2 102.7 13.2 127.4-14.3 24.1-27 35.2-62.7 25.9-93.7z" opacity=".33" fill="url(#d)"/><radialGradient id="e" cx="-121.821" cy="377.72" r="1" gradientTransform="matrix(104.301 0 0 -103.912 12829.135 39348.691)" gradientUnits="userSpaceOnUse"><stop offset="0" stop-color="#5902c2"/><stop offset=".11" stop-color="#4428ca"/><stop offset=".23" stop-color="#2f4dd1"/><stop offset=".36" stop-color="#1e6cd7"/><stop offset=".5" stop-color="#1184dc"/><stop offset=".64" stop-color="#0795df"/><stop offset=".8" stop-color="#029fe1"/><stop offset="1" stop-color="#00a2e2"/></radialGradient><path d="M224.5 13.4c-9.6-14-34.7-20.5-58.8-1.5-27.2 21.4-65.5 32-99.7 37.5-35.3 5.7-52 31.9-52.5 48.2-.5 17.8 14.5 40 59.1 67.2s75.6 34.7 102.2 31.2 44-19.3 52.7-45.7c6.1-18.4 2.7-40.5 1.3-70.1-1.7-36.9 9.6-46.6-4.3-66.8z" opacity=".33" fill="url(#e)"/></g><use xlink:href="#f" opacity=".3" fill="#f1edf6"/><use xlink:href="#f" y="-1" fill="#fff"/><path d="M31 50.8h184.5c.4 0 .8.1 1.2.2.4.2.7.4 1 .7s.5.6.7 1 .2.8.2 1.2v17.2H27.8V54c0-.8.3-1.7.9-2.3s1.4-.9 2.3-.9z" fill="#0084ff"/><path d="M24.7 179.7H13c-4.7 0-8.5 3.8-8.5 8.5s3.8 8.5 8.5 8.5h11.7c4.7 0 8.5-3.8 8.5-8.5s-3.8-8.5-8.5-8.5zm208-57.3H210c-4.7 0-8.5 3.8-8.5 8.5s3.8 8.5 8.5 8.5h22.7c4.7 0 8.5-3.8 8.5-8.5.1-4.7-3.8-8.5-8.5-8.5z" fill="#f2464c"/><path d="M256.5 97.4h-21.4c-4.7 0-8.5 3.8-8.5 8.5s3.8 8.5 8.5 8.5h21.4c4.7 0 8.5-3.8 8.5-8.5s-3.8-8.5-8.5-8.5zM0 107.8c0 4.7 3.8 8.5 8.5 8.5s8.5-3.8 8.5-8.5-3.8-8.5-8.5-8.5-8.5 3.8-8.5 8.5z" fill="#132187"/><path d="M63.3 108.2c0-.2 0-.3-.1-.4s-.2-.3-.3-.4c-.4-.3-.9-.5-1.4-.6l-1.6-.6c-.5-.2-.9-.5-1.1-.9-.3-.4-.4-.8-.5-1.3 0-.5.1-.9.4-1.3a2.73 2.73 0 0 1 1.2-.9c.6-.2 1.2-.3 1.8-.3s1.2.1 1.8.3c.5.2.9.5 1.2 1 .3.4.4.9.4 1.4h-1.9c0-.2 0-.3-.1-.5s-.2-.3-.3-.4c-.3-.2-.7-.3-1.1-.3s-.8.1-1.1.3l-.3.3c-.1.1-.1.3-.1.4s0 .3.1.4l.3.3c.4.2.9.4 1.3.5a5.45 5.45 0 0 1 2.4 1.2c.2.2.4.5.6.8.1.3.2.6.2.9s-.1.7-.2 1c-.2.3-.4.6-.7.8-.7.5-1.6.7-2.5.7-.7 0-1.4-.1-2-.4a3.25 3.25 0 0 1-1.3-1c-.3-.4-.5-1-.5-1.5H60c0 1 .6 1.5 1.9 1.5.4 0 .8-.1 1.1-.3l.3-.3c.1-.1 0-.3 0-.4zm3.8-5.8c0-.1 0-.2.1-.3 0-.1.1-.2.2-.3s.2-.2.3-.2.2-.1.4-.1c.1 0 .2 0 .4.1.1 0 .2.1.3.2s.1.2.2.3c0 .1.1.2.1.3s0 .2-.1.3c0 .1-.1.2-.2.3-.2.2-.4.3-.7.2-.2 0-.5-.1-.7-.2-.1-.1-.1-.2-.2-.3-.1 0-.1-.1-.1-.3zm1.7 8.2h-1.7v-6.5h1.6l.1 6.5zm1.9-4c0-.8.2-1.7.6-2.4.2-.3.5-.5.8-.7s.6-.2 1-.2c.3 0 .6 0 .8.2.3.1.5.3.7.6l.1-.6h1.4v6.2c0 .5-.1 1-.3 1.5-.2.4-.6.7-1 1-.5.2-1 .3-1.5.3a3.08 3.08 0 0 1-1.3-.3c-.4-.1-.7-.4-.9-.7l.7-1c.2.2.4.4.6.5s.5.2.8.2c.2 0 .4 0 .5-.1.2-.1.3-.2.5-.3.1-.1.2-.3.3-.5s.1-.4.1-.5v-.3c-.2.2-.4.4-.7.5s-.5.2-.8.2-.7-.1-1-.2c-.3-.2-.6-.4-.8-.7-.4-.9-.6-1.7-.6-2.7zm1.6.2c0 .5.1 1 .4 1.4a.78.78 0 0 0 .4.4.9.9 0 0 0 .5.1c.2 0 .4-.1.5-.2a.78.78 0 0 0 .4-.4v-2.7c-.1-.2-.3-.3-.4-.5-.2-.1-.4-.2-.6-.1-.2 0-.4 0-.5.1s-.3.2-.4.4c-.3.4-.3 1-.3 1.5zm7.2-3.3.1.8c.2-.3.5-.6.8-.7.3-.2.7-.2 1-.2s.6 0 .8.1c.3.1.5.3.7.6.4.6.5 1.3.5 2v4.6h-1.7v-4.5c0-.3-.1-.6-.2-.9-.1-.1-.2-.2-.4-.2-.1 0-.3-.1-.4 0-.2 0-.4 0-.6.2-.2.1-.3.3-.4.5v5H78v-7.1l1.5-.2zm16.6-1.9v5.9c0 .4 0 .9-.2 1.3s-.4.8-.7 1.1c-.7.6-1.7.9-2.7.8-1 0-1.9-.2-2.6-.8-.3-.3-.6-.6-.8-1s-.3-.8-.2-1.2v-6h2v5.9c0 .2 0 .5.1.7s.2.4.4.6c.3.3.8.4 1.2.4 1.1 0 1.7-.5 1.7-1.6v-5.9h1.8zm7.2 5.2c0 .9-.2 1.7-.6 2.4-.2.3-.4.5-.7.7s-.6.2-1 .2c-.3 0-.6 0-.8-.2-.3-.1-.5-.3-.7-.5v3.1h-1.6v-8.9h1.5l.1.6c.2-.2.4-.4.7-.6.3-.1.6-.2.8-.2.3 0 .7.1 1 .2.3.2.6.4.8.7.4.7.6 1.5.5 2.5zm-1.6-.2c0-.5-.1-1-.3-1.4a.78.78 0 0 0-.4-.4c-.2-.1-.3-.1-.5-.1s-.4 0-.6.1-.3.3-.4.5v2.7c.1.2.2.4.4.5s.4.2.6.1c.8.1 1.2-.6 1.2-2z" fill="#231f20"/><path d="m229.7 200.8-10.9 16.6c-.2.3-.5.5-.8.6s-.7 0-1-.2-.4-.6-.5-.9c-.1-.4 0-.7.2-1l10.2-15.5-1.1-.9-.9 1.5-10.9-8.3 4.8-7.6c.3-.5 3 1 6 3.3s5.2 4.5 4.9 5l-2.5 3.8 2.2 1.7c.3.2.5.5.5.9v.5c0 .1 0 .3-.2.5z" fill="#132187"/><path d="M38.4 64.7a3.4 3.4 0 1 0 0-6.8 3.37 3.37 0 0 0-3.4 3.4c0 1.8 1.6 3.4 3.4 3.4zm9.6 0a3.4 3.4 0 1 0 0-6.8 3.37 3.37 0 0 0-3.4 3.4 3.44 3.44 0 0 0 3.4 3.4zm10.1 0a3.4 3.4 0 1 0 0-6.8 3.37 3.37 0 0 0-3.4 3.4c-.1 1.8 1.5 3.4 3.4 3.4z" fill="#fffffc"/><path d="m211.9 193-25.7 37.5C185.1 232 185 245 185 245s12.2-4.7 13.2-6.2l25.8-37.5-12.1-8.3z" fill="#0084ff"/><g fill="none" stroke-width="4"><path d="M54 139h137M54 158h137" stroke="#0084ff"/><path d="M54 180h50" stroke="#f90"/></g></svg>