<svg width="1589" height="816" viewBox="0 0 1589 816" fill="none" xmlns="http://www.w3.org/2000/svg">
<path d="M1435 22C1439.97 22 1444 17.9706 1444 13C1444 8.02944 1439.97 4 1435 4C1430.03 4 1426 8.02944 1426 13C1426 17.9706 1430.03 22 1435 22Z" fill="#45C6E4"/>
<path d="M168 547C171.866 547 175 543.866 175 540C175 536.134 171.866 533 168 533C164.134 533 161 536.134 161 540C161 543.866 164.134 547 168 547Z" fill="#FF106C"/>
<path d="M299.5 650C302.538 650 305 647.538 305 644.5C305 641.462 302.538 639 299.5 639C296.462 639 294 641.462 294 644.5C294 647.538 296.462 650 299.5 650Z" fill="#48DDFF"/>
<path d="M718 812C723.523 812 728 807.523 728 802C728 796.477 723.523 792 718 792C712.477 792 708 796.477 708 802C708 807.523 712.477 812 718 812Z" fill="#FFAC64"/>
<path d="M1310 811C1314.42 811 1318 807.418 1318 803C1318 798.582 1314.42 795 1310 795C1305.58 795 1302 798.582 1302 803C1302 807.418 1305.58 811 1310 811Z" fill="#45C6E4"/>
<path d="M1258 474C1262.97 474 1267 469.971 1267 465C1267 460.029 1262.97 456 1258 456C1253.03 456 1249 460.029 1249 465C1249 469.971 1253.03 474 1258 474Z" fill="#3645BD"/>
<path d="M18 287C24.0751 287 29 291.925 29 298C29 304.075 24.0751 309 18 309C11.9249 309 7 304.075 7 298C7 291.925 11.9249 287 18 287Z" fill="#3645BD"/>
<path d="M263 115C267.418 115 271 111.418 271 107C271 102.582 267.418 99 263 99C258.582 99 255 102.582 255 107C255 111.418 258.582 115 263 115Z" fill="#FFAC64"/>
<path d="M1576 300C1579.87 300 1583 296.866 1583 293C1583 289.134 1579.87 286 1576 286C1572.13 286 1569 289.134 1569 293C1569 296.866 1572.13 300 1576 300Z" fill="#E1555F"/>
</svg>
