<?xml version="1.0" encoding="utf-8"?>
<!-- Generator: Adobe Illustrator 26.0.0, SVG Export Plug-In . SVG Version: 6.00 Build 0)  -->
<svg version="1.1" id="Layer_1" xmlns="http://www.w3.org/2000/svg" xmlns:xlink="http://www.w3.org/1999/xlink" x="0px" y="0px"
	 viewBox="0 0 37 37" style="enable-background:new 0 0 37 37;" xml:space="preserve">
<style type="text/css">
	.st0{fill:#0084FF;}
	.st1{fill:#F7F8F8;}
	.st2{fill:#132187;}
</style>
<g>
	<g>
		<path class="st0" d="M32.8,18.9v6.8c0,0.8-0.1,1.5-0.4,2.2c-0.3,0.7-0.7,1.3-1.2,1.9c-0.5,0.5-1.2,1-1.9,1.2
			c-0.7,0.3-1.4,0.4-2.2,0.4H9.9c-0.8,0-1.5-0.1-2.2-0.4c-0.7-0.3-1.3-0.7-1.9-1.2c-0.5-0.5-1-1.2-1.2-1.9c-0.3-0.7-0.4-1.4-0.4-2.2
			v-6.8c0-0.8,0.1-1.5,0.4-2.2c0.3-0.7,0.7-1.3,1.2-1.9c0.5-0.5,1.2-1,1.9-1.2c0.7-0.3,1.4-0.4,2.2-0.4h7.9v-2
			c0.4,0.1,0.8,0.1,1.2,0v2H27c0.8,0,1.5,0.1,2.2,0.4c0.7,0.3,1.3,0.7,1.9,1.2c0.5,0.5,1,1.2,1.2,1.9C32.6,17.4,32.8,18.1,32.8,18.9
			z"/>
		<path class="st1" d="M28.2,18.4H8.9c-0.4,0-0.6,0.3-0.6,0.6v8.9c0,0.4,0.3,0.6,0.6,0.6h19.3c0.4,0,0.6-0.3,0.6-0.6V19
			C28.9,18.6,28.6,18.4,28.2,18.4z"/>
		<path class="st2" d="M14.5,21.9h-2.2c-0.3,0-0.5,0.2-0.5,0.5v2.2c0,0.3,0.2,0.5,0.5,0.5h2.2c0.3,0,0.5-0.2,0.5-0.5v-2.2
			C15,22.1,14.8,21.9,14.5,21.9z"/>
		<path class="st2" d="M24.7,21.9h-2.2c-0.3,0-0.5,0.2-0.5,0.5v2.2c0,0.3,0.2,0.5,0.5,0.5h2.2c0.3,0,0.5-0.2,0.5-0.5v-2.2
			C25.2,22.1,25,21.9,24.7,21.9z"/>
		<path class="st2" d="M37,22.3c0,0.9-0.4,1.7-1,2.4c-0.6,0.6-1.5,1-2.4,1v-6.7c0.9,0,1.7,0.4,2.4,1C36.6,20.5,37,21.4,37,22.3z"/>
		<path class="st0" d="M18.5,10.7c1.4,0,2.6-1.2,2.6-2.6s-1.1-2.6-2.6-2.6s-2.6,1.2-2.6,2.6S17.1,10.7,18.5,10.7z"/>
		<path class="st2" d="M0,22.2c0-0.9,0.4-1.7,1-2.4c0.6-0.6,1.5-1,2.4-1v6.7c-0.9,0-1.7-0.4-2.4-1C0.4,24,0,23.1,0,22.2z"/>
	</g>
</g>
</svg>
