<svg xmlns="http://www.w3.org/2000/svg" xmlns:xlink="http://www.w3.org/1999/xlink" viewBox="0 0 265 245"><radialGradient id="a" cx="-121.385" cy="377.882" r="1" gradientTransform="matrix(112.079 0 0 -118.945 13739.247 45064.188)" gradientUnits="userSpaceOnUse"><stop offset="0" stop-color="#5902c2"/><stop offset=".11" stop-color="#4428ca"/><stop offset=".23" stop-color="#2f4dd1"/><stop offset=".36" stop-color="#1e6cd7"/><stop offset=".5" stop-color="#1184dc"/><stop offset=".64" stop-color="#0795df"/><stop offset=".8" stop-color="#029fe1"/><stop offset="1" stop-color="#00a2e2"/></radialGradient><path d="M208.1 67.2s-6.8-7-39.1-44.3-68.5 0-77.1 10.1L42.6 90.1c-24.4 28-32.7 53.5-25.2 73.3s34.7 29.1 61.3 21.9c29.1-7.9 56.1-9.1 78.6 20.2 28.5 36.9 79.4 26.3 92.6-25.4s-22.2-90-41.8-112.9z" opacity=".33" fill="url(#a)"/><path d="M220.7 102.1c-9-31.7-36.2-46.6-60.3-37.5-15.3 5.8-34.9 8-64.4-12.3C64.2 30.6 13.3 33 13.4 94.9c.2 78.7 33.9 107.6 53.9 121 42.8 28.7 102.7 14 127.4-15 24.2-28.5 35.3-66.1 26-98.8z" opacity=".33" fill="#45c6e4"/><radialGradient id="b" cx="-121.301" cy="377.786" r="1" gradientTransform="matrix(104.301 0 0 -109.595 12781.18 41507.816)" gradientUnits="userSpaceOnUse"><stop offset="0" stop-color="#5902c2"/><stop offset=".11" stop-color="#4428ca"/><stop offset=".23" stop-color="#2f4dd1"/><stop offset=".36" stop-color="#1e6cd7"/><stop offset=".5" stop-color="#1184dc"/><stop offset=".64" stop-color="#0795df"/><stop offset=".8" stop-color="#029fe1"/><stop offset="1" stop-color="#00a2e2"/></radialGradient><path d="M230.7 14C221.1-.7 196-7.6 171.9 12.4 144.8 35 106.5 46.2 72.2 52c-35.3 6-52 33.7-52.5 50.8-.5 18.8 14.5 42.2 59.1 70.9 44.6 28.6 75.6 36.6 102.2 32.9s44-20.4 52.7-48.2c6.1-19.4 2.7-42.8 1.3-73.9-1.7-38.9 9.6-49.2-4.3-70.5z" opacity=".33" fill="url(#b)"/><path d="M212.2 52.8H37.8c-4.4 0-8 3.6-8 8V228c0 4.4 3.6 8 8 8h174.4c4.4 0 8-3.6 8-8V60.8c0-4.4-3.6-8-8-8z" opacity=".5" fill="#f1edf6"/><path d="M212.2 51.8H37.8c-4.4 0-8 3.6-8 8V227c0 4.4 3.6 8 8 8h174.4c4.4 0 8-3.6 8-8V59.8c0-4.4-3.6-8-8-8z" fill="#fff"/><path d="M33.2 44h184.5c.8 0 1.7.3 2.3.9s.9 1.4.9 2.3v17.2H30V47.2c0-.8.3-1.7.9-2.3.6-.5 1.4-.9 2.3-.9z" fill="#0084ff"/><g fill="#fffffc"><use xlink:href="#c"/><use xlink:href="#c" x="9.6"/><path d="M60.2 57.9a3.37 3.37 0 0 0 3.4-3.4 3.37 3.37 0 1 0-6.8 0 3.37 3.37 0 0 0 3.4 3.4z"/></g><path d="M250.6 89.7h-23.8a7.9 7.9 0 1 0 0 15.8h23.8a7.9 7.9 0 1 0 0-15.8zM30.3 168.3H16.1a7.9 7.9 0 1 0 0 15.8h14.3a7.85 7.85 0 0 0 7.9-7.9c0-4.4-3.6-7.9-8-7.9z" fill="#132187"/><path d="M6.5 99.4a7.85 7.85 0 0 0 7.9 7.9 7.85 7.85 0 1 0 0-15.8 7.92 7.92 0 0 0-7.9 7.9z" fill="#f90"/><path d="M225.9 129.9h-17c-6.3 0-11.4 5.1-11.4 11.4s5.1 11.4 11.4 11.4h17c6.3 0 11.4-5.1 11.4-11.4s-5.1-11.4-11.4-11.4z" fill="#f2464c"/><path d="M234.9 196.8h-12.3l3.1 3.3h7.5v41.4H205v-3.6h-3v5.3c0 .2 0 .4.1.6s.2.4.3.5.3.3.5.3c.2.1.4.1.6.1h31.6c.4 0 .8-.2 1-.5.3-.3.4-.7.4-1.1v-44.8c0-.4-.2-.8-.4-1.1-.4-.2-.8-.4-1.2-.4zm-33 14.3v3.5h21.3v-3.4l-21.3-.1zm0 7.7v3.4h21.3v-3.4h-21.3zm0 7.6v3.4h21.3v-3.4h-21.3zm0-24.6v3.4h8.7v-3.4h-8.7zm0 28.1h21.3v-3.4h-21.3v3.4zm0-7.7h21.3v-3.4h-21.3v3.4zm0-11.1v3.5h21.3v-3.4l-21.3-.1zm8.7-9.3h-8.7v3.4h8.7v-3.4zm-8.7 28.1h21.3v-3.4h-21.3v3.4zm0-7.7h21.3v-3.4h-21.3v3.4zm0-7.7h21.3v-3.4h-21.3v3.4zm8.7-12.7h-8.7v3.4h8.7v-3.4z" fill="#0084ff"/><path d="M228.3 236.5c.2 0 .4 0 .6-.1s.4-.2.5-.3.3-.3.3-.5c.1-.2.1-.4.1-.6v-32l-12.4-12.7h-22.2c-.4 0-.8.2-1.1.5s-.4.7-.4 1.1V235c0 .4.2.8.4 1.1.3.3.7.5 1.1.5h33.1zm-31.3-3.4v-39.7h17.1V205c0 .3.1.5.3.7s.4.3.7.3h11.5v26.9l-29.6.2z" fill="#132187"/><g fill="none" stroke-width="4"><path d="M56.5 143h127m-127-30H110M56.5 92h79m-79 70h127m-127 18h127" stroke="#f1edf6"/><path d="M56.5 200h46" stroke="#f90"/></g><defs><path id="c" d="M40.6 57.9a3.37 3.37 0 0 0 3.4-3.4 3.37 3.37 0 0 0-3.4-3.4 3.37 3.37 0 0 0-3.4 3.4 3.37 3.37 0 0 0 3.4 3.4z"/></defs></svg>