<svg xmlns="http://www.w3.org/2000/svg" viewBox="0 0 126 30" xmlns:v="https://vecta.io/nano"><path d="M38.6 15.5v8c0 1.8-.7 3.5-2 4.8s-3 2-4.8 2H11.7c-1.8 0-3.5-.7-4.8-2s-2-3-2-4.8v-8c0-1.8.7-3.5 2-4.8s3-2 4.8-2h9.4V6.4c.5.1 1 .1 1.4 0v2.3h9.4c1.8 0 3.5.7 4.8 2 1.2 1.3 1.9 3 1.9 4.8z" fill="#0084ff"/><path d="M32.1 13.8H11.6c-1 0-1.9.8-1.9 1.9V25c0 1 .8 1.9 1.9 1.9h20.5c1 0 1.9-.8 1.9-1.9v-9.3a1.97 1.97 0 0 0-1.9-1.9z" fill="#f7f8f8"/><path d="M15.7 21.6c1.1 0 1.9-.9 1.9-1.9a1.97 1.97 0 0 0-1.9-1.9c-1.1 0-1.9.9-1.9 1.9a1.97 1.97 0 0 0 1.9 1.9zm12 0c1.1 0 1.9-.9 1.9-1.9a1.97 1.97 0 0 0-1.9-1.9c-1.1 0-1.9.9-1.9 1.9a1.97 1.97 0 0 0 1.9 1.9zm15.8-2.2c0 1.1-.4 2.1-1.2 2.8-.8.8-1.8 1.2-2.8 1.2v-7.9c1 0 2 .4 2.8 1.1.8.8 1.2 1.8 1.2 2.8z" fill="#091554"/><path d="M21.8,5.8c1.7,0,3-1.4,3-3s-1.4-3-3-3s-3,1.4-3,3S20.1,5.8,21.8,5.8z" fill="#0084ff"/><path d="M0 19.4c0-1.1.4-2.1 1.2-2.8.8-.8 1.8-1.2 2.8-1.2v7.9c-1 0-2-.4-2.8-1.1-.7-.8-1.2-1.7-1.2-2.8zm54.2 7.3c0-.6.4-4.5.5-4.9h-2.5L51.1 26l-5 .6 6.2-20.5c1.3 0 2.7-.2 4-.3 1.4-.1 2.7-.3 4-.6 0 .6-.9 17.9-1 20.9-.6 0-5.1.6-5.1.6zM53 18.9h2.1l.6-9.6h-.2L53 18.9zm10.8 7.3l-1.5.2-1.5.2-.7.1.7-2.8.7-3.2.7-3.4.7-3.3 1.4-7.7 4.5-.7-1.5 7.7-.7 3.3L66 20l-.6 3.3-.5 2.9h-1.1z" fill="#091554"/><path d="M67.2 26.8l3.6-20.3c1.2-.4 2.3-.6 3.6-.8s2.5-.2 3.8-.2a6.28 6.28 0 0 1 1.9.3c.4.1.8.4 1.2.8.3.3.5.7.6 1.1 0 .4.1.8.1 1.3 0 .8-.1 1.6-.4 2.3-.3.8-.6 1.5-1.1 2.1-.5.7-1 1.3-1.6 1.8s-1.2 1-1.9 1.4c.4.8 3 7.1 3.4 8.1L76 26.3l-2.3-8.8h-.4l-1.4 7.9-4.7 1.4zM74 14.1c.5-.1.9-.2 1.4-.5l1.5-1c.5-.3.9-.7 1.2-1.2.3-.3.5-.7.5-1.1 0-.1 0-.2-.1-.3 0-.1-.1-.2-.2-.2l-.6-.3-.8-.1H75l-1 4.7zm34.9 7.5c-.3.7-.8 1.3-1.3 1.9-.6.6-1.2 1.1-2 1.5s-1.6.8-2.4 1c-.8.3-1.6.5-2.4.6l-2.4.2c-.7 0-1.3 0-2-.2.9-3.4 1.7-6.8 2.2-10.3.6-3.4 1.1-6.9 1.6-10.4l3.1-.6a18.7 18.7 0 0 1 3.4-.3c.5 0 1 .1 1.5.2s1 .3 1.5.6c.4.3.8.7 1.1 1.2.3.6.5 1.3.5 1.9 0 .7-.1 1.4-.4 2.1-.2.6-.6 1.2-.9 1.7-.4.5-.8 1-1.3 1.4-.4.4-.9.6-1.5.8.3.2.5.4.8.6.3.3.5.6.7.9.3.4.5.8.6 1.2.1.5.2 1 .2 1.6 0 1-.2 1.8-.6 2.4zM102 21l1.3-.2c.5-.1.9-.2 1.3-.4a4.44 4.44 0 0 0 1.1-.8c.3-.3.4-.8.4-1.2 0-.3-.1-.6-.3-.9-.2-.2-.4-.4-.7-.6s-.6-.3-.9-.3h-.9-.5c-.1.3-.7 3.9-.8 4.4zm1.5-8.2c.4-.1.8-.2 1.3-.3.4-.1.8-.3 1.2-.4.3-.1.6-.3.8-.5.1-.1.2-.2.2-.3.1-.1.1-.2.1-.4 0-.1 0-.3-.1-.4 0-.1-.1-.2-.2-.3-.2-.2-.4-.4-.7-.5s-.6-.2-.9-.2h-.8-.3c-.1.1-.6 3-.6 3.3zm22.1 2.7c-.3 1.3-.8 2.6-1.4 3.9-.5 1.1-1.2 2.2-2 3.2a13.63 13.63 0 0 1-2.4 2.4c-.7.6-1.5 1.1-2.4 1.5-.8.3-1.6.5-2.4.5-.6 0-1.2-.1-1.7-.4s-1-.6-1.4-1.1-.7-1.2-.9-1.8c-.2-.9-.4-1.8-.3-2.7 0-1.2.1-2.3.4-3.4.3-1.2.6-2.4 1.1-3.6s1-2.3 1.7-3.4c.6-1 1.4-2 2.2-2.8s1.6-1.5 2.6-2c.9-.5 1.9-.7 2.9-.7.8 0 1.5.2 2.2.5.6.3 1 .8 1.3 1.4s.6 1.2.7 1.9.2 1.4.2 2.2c0 1.5-.1 2.9-.4 4.4zm-9.6 6.4c.2.1.4.2.7.2.9 0 1.8-.3 2.4-.9.7-.6 1.3-1.4 1.7-2.2.4-.9.8-1.8 1-2.8.7-2.7.4-4.4-.2-4.8-.1-.1-.2-.1-.3-.2-.7-.3-1.6.1-2.1.4s-1 .7-1.4 1.2-.8 1.1-1.1 1.7-.6 1.3-.8 2c-.2.6-.4 1.3-.5 2-.1.5-.1 1.1-.1 1.7-.1 1.2.5 1.5.7 1.7zm-19.3-6.4c-.3 1.3-.8 2.6-1.4 3.9-.5 1.1-1.2 2.2-2 3.2a13.63 13.63 0 0 1-2.4 2.4c-.7.6-1.5 1.1-2.4 1.5-.8.3-1.6.5-2.4.5-.6 0-1.2-.1-1.7-.4s-1-.6-1.4-1.1-.7-1.2-.9-1.8c-.2-.9-.4-1.8-.3-2.7 0-1.2.1-2.3.4-3.4.3-1.2.6-2.4 1.1-3.6s1-2.3 1.7-3.4c.6-1 1.4-2 2.2-2.8s1.6-1.5 2.6-2 2-.8 3-.8c.8 0 1.5.2 2.2.5.6.3 1 .8 1.3 1.4s.6 1.2.7 1.9.2 1.4.2 2.2c0 1.6-.1 3-.5 4.5zm-9.5 6.4c.2.1.4.2.7.2.9 0 1.8-.3 2.4-.9.7-.6 1.3-1.4 1.7-2.2.4-.9.8-1.8 1-2.8.7-2.7.4-4.4-.2-4.8-.1-.1-.2-.1-.3-.2-.7-.3-1.6.1-2.1.4s-1 .7-1.4 1.2-.8 1.1-1.1 1.7-.6 1.3-.8 2c-.2.6-.4 1.3-.5 2-.1.5-.1 1.1-.1 1.7-.1 1.2.5 1.5.7 1.7z" fill="#0084ff"/></svg>