<?xml version="1.0" encoding="utf-8"?>
<!-- Generator: Adobe Illustrator 26.0.0, SVG Export Plug-In . SVG Version: 6.00 Build 0)  -->
<svg version="1.1" id="Layer_1" xmlns="http://www.w3.org/2000/svg" xmlns:xlink="http://www.w3.org/1999/xlink" x="0px" y="0px"
	 viewBox="0 0 1118.9 727.4" style="enable-background:new 0 0 1118.9 727.4;" xml:space="preserve">
<style type="text/css">
	.st0{fill:url(#SVGID_1_);}
	.st1{fill:url(#SVGID_00000150065866099864948320000017370205659670265779_);}
	.st2{fill:url(#SVGID_00000036232336474474238540000002964387629027302833_);}
	.st3{fill:url(#SVGID_00000131333649982529981750000014158050986815462072_);}
	.st4{fill:#FFFFFF;}
	.st5{fill:#F2F2F2;}
	.st6{fill:#DCEDFF;}
	.st7{fill:#B0D1F4;}
	.st8{fill:#EE6368;}
	.st9{fill:#F8BC16;}
	.st10{fill:#4CB74B;}
</style>
<g>
	
		<linearGradient id="SVGID_1_" gradientUnits="userSpaceOnUse" x1="937.114" y1="29.5616" x2="933.7725" y2="295.2065" gradientTransform="matrix(1 0 0 -1 0 757.1659)">
		<stop  offset="0.219" style="stop-color:#FF488F"/>
		<stop  offset="1" style="stop-color:#FF106C"/>
	</linearGradient>
	<path class="st0" d="M1111.9,603c-15.4,48.1-60.3,95.6-120.3,117.5c-50,18.3-77.1-5-96.7-11.1c-20.5-6.4-38.3-5.7-74.4,1.6
		c-32.9,6.6-59.6-1.6-65.5-20.2c-4.1-13-6.1-33.5,21.4-72.7h207.9c3.3,0,6-2.7,6-6V463.5c18.5-3.4,36.9-3.6,54.2,0.5
		C1117.3,481.6,1129.1,549.2,1111.9,603z"/>
	
		<linearGradient id="SVGID_00000062892927453466709710000010350130493391238283_" gradientUnits="userSpaceOnUse" x1="890.8253" y1="309.7654" x2="1020.5627" y2="101.1017" gradientTransform="matrix(1 0 0 -1 0 757.1659)">
		<stop  offset="0" style="stop-color:#921042"/>
		<stop  offset="1" style="stop-color:#FF106C"/>
	</linearGradient>
	<path style="fill:url(#SVGID_00000062892927453466709710000010350130493391238283_);" d="M1019.2,641.3
		c-37.4,60.2-116.5,78.6-176.6,41.2c-20.7-12.9-42.6-37.5-58.8-64.3h200.5c3.3,0,6-2.7,6-6V390.9c21.2-21.6,39.2-33.9,60.4-20.7
		C1110.8,407.6,1056.6,581.1,1019.2,641.3z"/>
	
		<linearGradient id="SVGID_00000110445577193224027110000016303284087164278156_" gradientUnits="userSpaceOnUse" x1="19.9511" y1="250.6461" x2="415.673" y2="22.176">
		<stop  offset="0" style="stop-color:#192894"/>
		<stop  offset="1" style="stop-color:#266DF3"/>
	</linearGradient>
	<path style="fill:url(#SVGID_00000110445577193224027110000016303284087164278156_);" d="M462.3,148.7H126.7v196.9
		c-38.2-20.8-69.5-47.1-90.9-73c-2.3-2.8-4.5-5.6-6.5-8.3C6.9,234.4-3.2,202.1,0.9,172.3C4.2,148.6,0,55.8,179.2,35.7
		c3.7-0.4,7.2,0,10.7-0.1c28.9-0.9,50.4-7.4,84.4-23.6c34.6-16.5,79.9-16,110.8,1.2C413.5,29.1,458.7,60.3,462.3,148.7z"/>
	
		<linearGradient id="SVGID_00000056422260978492459130000003073780206784866445_" gradientUnits="userSpaceOnUse" x1="200.1906" y1="356.9833" x2="230.3625" y2="11.818">
		<stop  offset="0" style="stop-color:#266DF3"/>
		<stop  offset="1" style="stop-color:#0F0384"/>
	</linearGradient>
	<path style="fill:url(#SVGID_00000056422260978492459130000003073780206784866445_);" d="M439.8,161.5H126.7v189.1
		c-39.7-32.3-69.9-74-90.9-115.1c-14.6-28.6-24.7-57-30.4-81.8c-2.1-9.1-3.6-18.1-4.4-27c-6-61.5,18-115,74.4-125.2
		c43.5-7.8,84.4,19.3,114.6,37.3c5.8,3.5,11.3,6.6,16.3,9.1c32.3,16.1,62.5,19.6,105.2,18.5c38.8-1,78.1,22.2,103.2,51.2
		C424.3,128.7,433.2,143.8,439.8,161.5z"/>
</g>
<g>
	<path class="st4" d="M994.3,102.6H124.6c-5.5,0-9.9,4.4-9.9,9.9v502c0,4.7,1.9,9.2,5.2,12.5c3.3,3.3,7.8,5.2,12.6,5.2h854
		c9.8,0,17.7-7.9,17.7-17.7v-502C1004.2,107,999.7,102.6,994.3,102.6z M989.3,611.2c0,3.3-2.7,6-6,6H135.7c-3.3,0-6-2.7-6-6V174.5
		h859.6V611.2z"/>
	<path class="st5" d="M955.6,143.8H202.7c-5.5,0-10,4.5-10,10s4.5,10,10,10h752.9c5.5,0,10-4.5,10-10S961.1,143.8,955.6,143.8z"/>
	<path class="st6" d="M955.6,143.8H202.7c-5.5,0-10,4.5-10,10s4.5,10,10,10h752.9c5.5,0,10-4.5,10-10S961.1,143.8,955.6,143.8z
		 M124.6,102.6h869.7c5.5,0,9.9,4.4,9.9,9.9l0,0v24.3H114.7v-24.3C114.7,107,119.1,102.6,124.6,102.6z"/>
	<path class="st4" d="M343.5,139.1H160.9l5.5-1.7c2.6-0.8,4.5-3.2,4.5-6v-17.3c0-3,2.5-5.4,5.5-5.4h151.7c3,0,5.5,2.4,5.5,5.5l0,0
		v17.3c0,2.8,1.8,5.2,4.5,6L343.5,139.1L343.5,139.1z"/>
	<path class="st7" d="M345.1,128.6h0.8v-5.3h5.3v-0.7h-5.3v-5.3h-0.8v5.3h-5.3v0.8h5.3V128.6z M323.2,126.5l0.5-0.5l-3-3l3-3
		l-0.5-0.5l-3,3l-3-3l-0.5,0.5l3,3l-3,3l0.5,0.5l3-3L323.2,126.5z M213,157.7l-1.4-1.4l-0.1,0.1l-0.3-0.3c0.6-0.8,1-1.8,1-2.8
		c0-0.6-0.1-1.2-0.3-1.7s-0.6-1-1-1.5c-0.8-0.8-2-1.3-3.2-1.3c-2.5,0-4.5,2-4.5,4.5c0,1.2,0.5,2.4,1.3,3.2s2,1.3,3.2,1.3
		c1,0,2-0.3,2.8-1l0.3,0.3l-0.1,0.1l1.4,1.4c0.1,0.1,0.3,0.2,0.4,0.2c0.2,0,0.3-0.1,0.5-0.2C213.3,158.3,213.3,157.9,213,157.7z
		 M207.7,157.2c-1,0-2-0.4-2.8-1.1c-0.7-0.7-1.1-1.7-1.1-2.8c0-2.2,1.7-3.9,3.9-3.9c2.1,0,3.9,1.7,3.9,3.9
		C211.6,155.4,209.8,157.2,207.7,157.2z M950.4,150l1,2c0.2,0.4,0.5,0.6,0.9,0.7l2.2,0.3l-1.6,1.6c-0.3,0.3-0.4,0.7-0.3,1.2l0.4,2.2
		l-1.9-1.1c-0.4-0.2-0.8-0.2-1.2,0L948,158l0.4-2.3c0.1-0.4-0.1-0.8-0.4-1.2l-1.6-1.6l2.2-0.3c0.4-0.1,0.8-0.3,0.9-0.7L950.4,150
		 M950.4,149.1c-0.1,0-0.3,0.1-0.3,0.2l-1.2,2.4c-0.1,0.2-0.3,0.3-0.5,0.4l-2.6,0.4c-0.2,0-0.4,0.3-0.3,0.5c0,0.1,0.1,0.1,0.1,0.2
		l1.9,1.9c0.2,0.2,0.2,0.4,0.2,0.6l-0.4,2.7c0,0.2,0.1,0.3,0.2,0.4c0,0,0.1,0,0.2,0c0.1,0,0.1,0,0.2,0l2.3-1.3
		c0.1-0.1,0.2-0.1,0.3-0.1s0.2,0,0.3,0.1l2.3,1.3c0.1,0,0.1,0,0.2,0.1c0.2,0,0.4-0.2,0.4-0.4c0,0,0,0,0-0.1l-0.5-2.7
		c0-0.2,0-0.4,0.2-0.6l1.9-1.9c0.2-0.2,0.2-0.4,0-0.6c-0.1-0.1-0.1-0.1-0.2-0.1l-2.6-0.4c-0.2,0-0.4-0.2-0.5-0.4l-1.2-2.5
		C950.6,149.2,950.5,149.1,950.4,149.1L950.4,149.1L950.4,149.1z M980,149.3h10.2v1H980V149.3z M980,153.5h10.2v1H980V153.5z
		 M980,157.8h10.2v1H980V157.8z M169.2,149.4c2.6-1.6,6.1-0.9,7.8,1.6l0.1-0.1l0.5-0.3l-0.1,1.8l-1.8-0.6l0.5-0.3l0.2-0.1
		c-1.5-2.2-4.5-2.9-6.8-1.4c-2.2,1.4-2.9,4.3-1.5,6.5c0,0.1,0.1,0.1,0.1,0.2c1.5,2.2,4.5,2.9,6.8,1.4c0.2-0.1,0.4-0.1,0.5,0.1l0,0
		c0.1,0.2,0.1,0.4-0.1,0.5l0,0c-2.6,1.7-6.1,0.9-7.8-1.6s-1-5.9,1.5-7.5C169.1,149.5,169.1,149.5,169.2,149.4z M134.2,159.5l0.4-0.4
		c0,0,0.1-0.1,0-0.2l0,0l-5-4.9l5-4.9c0.1-0.1,0.1-0.2,0-0.2l-0.3-0.4h-0.1h-0.1l-5.3,5.3c-0.1,0.1-0.1,0.3,0,0.4L134.2,159.5
		C134,159.5,134.1,159.5,134.2,159.5z M147.6,148.6l-0.4,0.4v0.1v0.1l5,4.9l-5,4.9v0.1v0.1l0.4,0.4h0.1h0.1l5.3-5.2l0.1-0.1
		c0-0.1,0-0.2,0-0.2s0-0.1-0.1-0.1l-5.3-5.3h-0.1C147.7,148.5,147.6,148.5,147.6,148.6L147.6,148.6z"/>
	<path class="st8" d="M132,124c2.5,0,4.5-2,4.5-4.5s-2-4.5-4.5-4.5l0,0c-2.5,0-4.5,2-4.5,4.5C127.6,122,129.6,124,132,124z"/>
	<path class="st9" d="M145,124c2.5,0,4.5-2,4.5-4.5s-2-4.5-4.5-4.5l0,0c-2.5,0-4.5,2-4.5,4.5C140.6,122,142.6,124,145,124z"/>
	<path class="st10" d="M157.5,124c2.5,0,4.5-2,4.5-4.5s-2-4.5-4.5-4.5l0,0c-2.5,0-4.5,2-4.5,4.5S155,124,157.5,124z"/>
</g>
</svg>
